<?xml version="1.0" encoding="utf-8"?>
<!-- Generator: Adobe Illustrator 16.0.4, SVG Export Plug-In . SVG Version: 6.00 Build 0)  -->
<!DOCTYPE svg PUBLIC "-//W3C//DTD SVG 1.1//EN" "http://www.w3.org/Graphics/SVG/1.1/DTD/svg11.dtd">
<svg version="1.1" id="Ebene_1" xmlns="http://www.w3.org/2000/svg" xmlns:xlink="http://www.w3.org/1999/xlink" x="0px" y="0px"
	 width="17.664px" height="22.345px" viewBox="0 0 17.664 22.345" enable-background="new 0 0 17.664 22.345" xml:space="preserve">
<g>
	<path fill="#1B3F8C" d="M4.409,10.403C3.459,8.751,2.526,7.127,1.578,5.478c2.244-1.29,4.43-2.545,6.637-3.813
		c0.634,1.075,1.231,2.104,1.847,3.122c0.355,0.586,0.688,0.663,1.362,0.338c-0.934-1.616-1.867-3.229-2.815-4.87
		C7.168,1.072,5.754,1.873,4.313,2.689C4.02,2.249,3.749,1.842,3.463,1.413C2.544,2.43,1.67,3.403,0.79,4.372
		c-0.499,0.549-0.542,0.861-0.173,1.5c0.949,1.643,1.9,3.285,2.852,4.926c0.068,0.118,0.147,0.23,0.24,0.374
		C3.962,10.893,4.169,10.665,4.409,10.403z M11.521,8.645c1.339,0,2.678,0.008,4.017-0.003c0.734-0.006,1.078-0.378,1.066-1.101
		c-0.011-0.696-0.405-1.074-1.167-1.077c-1.824-0.007-3.649-0.002-5.474-0.001c-0.78,0-1.56-0.01-2.339,0.006
		C6.905,6.482,6.491,6.85,6.457,7.467c-0.042,0.75,0.331,1.169,1.092,1.176C8.873,8.655,10.197,8.646,11.521,8.645z"/>
	<path fill-rule="evenodd" clip-rule="evenodd" fill="#1B3F8C" d="M6.183,22.345c-0.409-0.223-0.52-0.625-0.588-1.034
		c-0.422-2.506-0.85-5.011-1.243-7.522c-0.231-1.48,0.423-2.592,1.689-2.94c0.307-0.084,0.638-0.112,0.958-0.113
		c3.384-0.009,6.767-0.008,10.15-0.008c0.129,0,0.258,0.019,0.457,0.034c-0.137,0.859-0.263,1.682-0.4,2.502
		c-0.441,2.636-0.889,5.271-1.326,7.908c-0.077,0.459-0.195,0.886-0.6,1.172C12.247,22.345,9.215,22.345,6.183,22.345z"/>
	<path fill-rule="evenodd" clip-rule="evenodd" fill="#1B3F8C" d="M17.664,2.826c-0.038,0.107-0.083,0.213-0.113,0.322
		c-0.3,1.135-1.174,1.805-2.236,1.709c-0.96-0.086-1.792-1.005-1.875-2.09C13.336,1.414,13.92,0.488,15.191,0
		c0.207,0,0.412,0,0.619,0c0.709,0.232,1.292,0.621,1.59,1.337c0.106,0.253,0.177,0.521,0.265,0.783
		C17.664,2.355,17.664,2.591,17.664,2.826z"/>
	<path fill-rule="evenodd" clip-rule="evenodd" fill="#1B3F8C" d="M0,21.02c0.089-0.145,0.195-0.283,0.264-0.438
		c0.913-2.053,1.82-4.108,2.73-6.162c0.05-0.114,0.114-0.223,0.233-0.453c0.169,0.999,0.317,1.873,0.465,2.747
		c0.022,0.13,0.037,0.262,0.068,0.391c0.213,0.888,0.146,1.725-0.289,2.557c-0.418,0.803-0.739,1.657-1.105,2.495
		C1.549,21.795,0.774,21.452,0,21.108C0,21.079,0,21.05,0,21.02z"/>
	<path fill-rule="evenodd" clip-rule="evenodd" fill="#1B3F8C" d="M4.409,10.403c-0.239,0.262-0.447,0.49-0.701,0.769
		c-0.092-0.144-0.171-0.256-0.24-0.374C2.517,9.157,1.565,7.515,0.616,5.872c-0.369-0.639-0.325-0.951,0.173-1.5
		C1.67,3.403,2.544,2.43,3.463,1.413C3.749,1.842,4.02,2.249,4.313,2.689c1.44-0.816,2.854-1.618,4.296-2.435
		c0.949,1.641,1.881,3.254,2.815,4.87c-0.674,0.325-1.007,0.248-1.362-0.338C9.446,3.769,8.85,2.739,8.215,1.665
		C6.008,2.933,3.822,4.188,1.578,5.478C2.526,7.127,3.459,8.751,4.409,10.403z"/>
	<path fill-rule="evenodd" clip-rule="evenodd" fill="#1B3F8C" d="M11.521,8.646c-1.324,0-2.649,0.009-3.973-0.003
		C6.788,8.636,6.414,8.217,6.457,7.467C6.491,6.85,6.905,6.482,7.625,6.468c0.78-0.016,1.56-0.006,2.339-0.006
		c1.825-0.001,3.649-0.006,5.474,0.001c0.762,0.003,1.156,0.381,1.167,1.077c0.011,0.723-0.333,1.095-1.066,1.101
		C14.199,8.653,12.86,8.645,11.521,8.646z"/>
</g>
</svg>
