
<svg xmlns="http://www.w3.org/2000/svg" width="400.32227" height="122.14063" viewBox="0 0 400.32227 122.14063"><defs><style>.a{fill:#164194;fill-rule:evenodd;}.b{fill:#1d1d1b;}.c{fill:#c6c6c6;}</style></defs><title>jpd-quer</title><path class="a" d="M-23.48926,154.57953Q-27.74463,146.51263-32,138.44672,10.93594,116.22321,53.87219,94L38.08459,208.67133-2.13586,196.41125l-14.85046,19.72937-8.49683-5.82666,19.67133-25.77905,33.07971,8.87463,7.67139-72.18872-58.42853,33.3587Z" transform="translate(32 -94)"/><path class="b" d="M139.66357,197.19043a3.67756,3.67756,0,0,1,.94434.10547,1.82117,1.82117,0,0,1,.64453.30273,1.162,1.162,0,0,1,.36914.47754,1.622,1.622,0,0,1,.11816.63379,1.27231,1.27231,0,0,1-.06152.39453,1.1686,1.1686,0,0,1-.19238.35547,1.39318,1.39318,0,0,1-.32617.29785,1.842,1.842,0,0,1-.46387.2207q1.22461.25928,1.22461,1.2998a1.62435,1.62435,0,0,1-.13867.67383,1.4954,1.4954,0,0,1-.39941.52832,1.89919,1.89919,0,0,1-.64648.3457,2.83625,2.83625,0,0,1-.876.124h-2.1123v-5.75977Zm-.97949.73145v1.80078h.93555a1.44256,1.44256,0,0,0,.89648-.23242.79748.79748,0,0,0,.2959-.668.81115.81115,0,0,0-.27832-.68848,1.44391,1.44391,0,0,0-.87012-.21191Zm1.16016,4.28809a1.66641,1.66641,0,0,0,.53418-.07422.97672.97672,0,0,0,.35547-.20117.75456.75456,0,0,0,.2002-.30273,1.109,1.109,0,0,0,.06152-.374.79648.79648,0,0,0-.27734-.6416,1.35018,1.35018,0,0,0-.87793-.23437h-1.15625V202.21Z" transform="translate(32 -94)"/><path class="b" d="M146.5083,202.19434a1.48682,1.48682,0,0,0,.59375-.1123,1.26,1.26,0,0,0,.44434-.31152,1.367,1.367,0,0,0,.27832-.48242,1.94482,1.94482,0,0,0,.0957-.626v-3.47168h.93164v3.47168a2.64945,2.64945,0,0,1-.16211.94043,2.09094,2.09094,0,0,1-1.2041,1.2373,2.76557,2.76557,0,0,1-1.95605,0,2.09294,2.09294,0,0,1-1.20312-1.2373,2.64945,2.64945,0,0,1-.16211-.94043v-3.47168h.93555v3.46777a1.94482,1.94482,0,0,0,.0957.626,1.396,1.396,0,0,0,.27637.48438,1.22444,1.22444,0,0,0,.44238.31348A1.48682,1.48682,0,0,0,146.5083,202.19434Z" transform="translate(32 -94)"/><path class="b" d="M156.18359,197.19043v5.75977H155.707a.40777.40777,0,0,1-.18359-.03809.42535.42535,0,0,1-.14355-.126l-3.16357-4.06348c.00781.07715.01367.15332.01758.22949s.00586.14648.00586.21v3.78809h-.82422v-5.75977h.48828a.76513.76513,0,0,1,.10254.00586.32055.32055,0,0,1,.07715.02148.22693.22693,0,0,1,.06836.04883.68373.68373,0,0,1,.06836.08008l3.16748,4.06738c-.00781-.082-.01465-.16406-.01855-.24414s-.00586-.1543-.00586-.22363v-3.75586Z" transform="translate(32 -94)"/><path class="b" d="M163.876,200.07031a3.17654,3.17654,0,0,1-.208,1.16992,2.57988,2.57988,0,0,1-1.49414,1.5,3.18024,3.18024,0,0,1-1.17773.21h-2.17676v-5.75977h2.17676a3.16052,3.16052,0,0,1,1.17773.21,2.57988,2.57988,0,0,1,1.49414,1.5A3.17654,3.17654,0,0,1,163.876,200.07031Zm-.95605,0a2.79152,2.79152,0,0,0-.13379-.89258,1.85591,1.85591,0,0,0-.38477-.668,1.67837,1.67837,0,0,0-.60547-.418,2.10289,2.10289,0,0,0-.7998-.14551h-1.23633v4.248h1.23633a2.10291,2.10291,0,0,0,.7998-.14453,1.63147,1.63147,0,0,0,.60547-.418,1.87267,1.87267,0,0,0,.38477-.668A2.78066,2.78066,0,0,0,162.91992,200.07031Z" transform="translate(32 -94)"/><path class="b" d="M169.76367,202.19434l-.00391.75586H166.167v-5.75977h3.59277v.75586h-2.65234v1.73633h2.12012v.73145h-2.12012v1.78027Z" transform="translate(32 -94)"/><path class="b" d="M175.05176,198.17383a.34088.34088,0,0,1-.09277.10645.2.2,0,0,1-.11914.03418.309.309,0,0,1-.16992-.06445c-.06348-.042-.14062-.08984-.23242-.1416a2.05726,2.05726,0,0,0-.32617-.14453,1.54625,1.54625,0,0,0-.87012-.00586.87788.87788,0,0,0-.30566.168.70525.70525,0,0,0-.18652.25391.815.815,0,0,0-.06152.31836.57271.57271,0,0,0,.11621.36621.99463.99463,0,0,0,.30566.25,2.45373,2.45373,0,0,0,.43457.18164q.24316.07764.49707.166a5.24666,5.24666,0,0,1,.498.2002,1.671,1.671,0,0,1,.43457.28418,1.309,1.309,0,0,1,.30566.41992,1.41834,1.41834,0,0,1,.11621.60352,1.96005,1.96005,0,0,1-.13184.7207,1.70971,1.70971,0,0,1-.38184.58594,1.7857,1.7857,0,0,1-.61621.39355,2.27255,2.27255,0,0,1-.834.14453,2.64675,2.64675,0,0,1-.53809-.05469,2.77509,2.77509,0,0,1-.5-.15137,2.53187,2.53187,0,0,1-.44629-.23828,2.236,2.236,0,0,1-.37207-.3125l.27246-.44727a.25323.25323,0,0,1,.21582-.12012.34644.34644,0,0,1,.2041.08594q.11133.08643.26953.1875a2.087,2.087,0,0,0,.38281.18848,1.48185,1.48185,0,0,0,.53516.08594,1.14308,1.14308,0,0,0,.78613-.248.86866.86866,0,0,0,.27832-.68359.64533.64533,0,0,0-.11621-.39844.94719.94719,0,0,0-.30566-.25781,2.19147,2.19147,0,0,0-.43457-.17578c-.16211-.04883-.32715-.09961-.49609-.1543a4.84732,4.84732,0,0,1-.49512-.19238,1.56725,1.56725,0,0,1-.43457-.28809,1.31726,1.31726,0,0,1-.30566-.43945,1.62143,1.62143,0,0,1-.11621-.6543,1.55364,1.55364,0,0,1,.12207-.60352,1.5262,1.5262,0,0,1,.35645-.51855,1.7464,1.7464,0,0,1,.57715-.3623,2.13943,2.13943,0,0,1,.78418-.13574,2.55158,2.55158,0,0,1,.91016.15625,2.05823,2.05823,0,0,1,.71387.44434Z" transform="translate(32 -94)"/><path class="b" d="M182.375,197.19043l-2.33594,5.75977h-.84375l-2.33594-5.75977h.748a.30543.30543,0,0,1,.19922.06152.40383.40383,0,0,1,.11621.1543l1.48438,3.75586a6.07454,6.07454,0,0,1,.21973.72852c.0293-.13672.06055-.26562.09375-.38867.03418-.12207.07031-.23535.11035-.33984l1.48047-3.75586a.38133.38133,0,0,1,.11133-.14844.30087.30087,0,0,1,.2002-.06738Z" transform="translate(32 -94)"/><path class="b" d="M187.90723,202.19434l-.00391.75586h-3.59277v-5.75977h3.59277v.75586H185.251v1.73633h2.12012v.73145H185.251v1.78027Z" transform="translate(32 -94)"/><path class="b" d="M194.56738,202.9502h-.83594a.38518.38518,0,0,1-.36035-.19238l-1.34375-1.93945a.45025.45025,0,0,0-.14844-.14453.51312.51312,0,0,0-.24023-.04395h-.51953v2.32031h-.93652v-5.75977h1.69629a3.59362,3.59362,0,0,1,.97852.11621,1.86474,1.86474,0,0,1,.67383.3291,1.3135,1.3135,0,0,1,.38965.51465,1.81256,1.81256,0,0,1,.03613,1.22754,1.5608,1.5608,0,0,1-.25977.47266,1.67408,1.67408,0,0,1-.418.36719,2.11219,2.11219,0,0,1-.56445.24414.92631.92631,0,0,1,.2959.292Zm-2.71191-3a1.82185,1.82185,0,0,0,.55957-.07812,1.12494,1.12494,0,0,0,.40039-.21777.88924.88924,0,0,0,.23926-.334,1.11145,1.11145,0,0,0,.08008-.42969.86616.86616,0,0,0-.31152-.7207,1.50274,1.50274,0,0,0-.94434-.248h-.75977v2.02832Z" transform="translate(32 -94)"/><path class="b" d="M198.44238,197.19043a3.67756,3.67756,0,0,1,.94434.10547,1.82117,1.82117,0,0,1,.64453.30273,1.162,1.162,0,0,1,.36914.47754,1.622,1.622,0,0,1,.11816.63379,1.27231,1.27231,0,0,1-.06152.39453,1.1686,1.1686,0,0,1-.19238.35547,1.39318,1.39318,0,0,1-.32617.29785,1.842,1.842,0,0,1-.46387.2207q1.22461.25928,1.22461,1.2998a1.62435,1.62435,0,0,1-.13867.67383,1.4954,1.4954,0,0,1-.39941.52832,1.89919,1.89919,0,0,1-.64648.3457,2.83625,2.83625,0,0,1-.876.124h-2.1123v-5.75977Zm-.97949.73145v1.80078h.93555a1.44256,1.44256,0,0,0,.89648-.23242.79748.79748,0,0,0,.2959-.668.81115.81115,0,0,0-.27832-.68848,1.44391,1.44391,0,0,0-.87012-.21191ZM198.623,202.21a1.66641,1.66641,0,0,0,.53418-.07422.97672.97672,0,0,0,.35547-.20117.75456.75456,0,0,0,.2002-.30273,1.109,1.109,0,0,0,.06152-.374.79648.79648,0,0,0-.27734-.6416,1.35018,1.35018,0,0,0-.87793-.23437h-1.15625V202.21Z" transform="translate(32 -94)"/><path class="b" d="M207.74707,202.9502h-.72363a.30825.30825,0,0,1-.2002-.06152.40383.40383,0,0,1-.11621-.1543l-.47949-1.27246h-2.48047l-.47949,1.27246a.39153.39153,0,0,1-.1123.14746.2965.2965,0,0,1-.2002.06836h-.72363l2.28418-5.75977h.94727ZM205.97559,200.79l-.792-2.10352a5.73865,5.73865,0,0,1-.19629-.62012c-.0293.125-.06152.24023-.0957.3457q-.05273.1582-.09668.27832l-.792,2.09961Z" transform="translate(32 -94)"/><path class="b" d="M214.45117,197.19043v5.75977h-.47656a.40777.40777,0,0,1-.18359-.03809.42535.42535,0,0,1-.14355-.126l-3.16406-4.06348c.00781.07715.01367.15332.01758.22949s.00586.14648.00586.21v3.78809h-.82422v-5.75977h.48828a.76513.76513,0,0,1,.10254.00586.32055.32055,0,0,1,.07715.02148.22693.22693,0,0,1,.06836.04883.68373.68373,0,0,1,.06836.08008l3.168,4.06738c-.00781-.082-.01465-.16406-.01855-.24414s-.00586-.1543-.00586-.22363v-3.75586Z" transform="translate(32 -94)"/><path class="b" d="M222.14355,200.07031a3.17654,3.17654,0,0,1-.208,1.16992,2.57988,2.57988,0,0,1-1.49414,1.5,3.18024,3.18024,0,0,1-1.17773.21h-2.17676v-5.75977h2.17676a3.16052,3.16052,0,0,1,1.17773.21,2.57988,2.57988,0,0,1,1.49414,1.5A3.17654,3.17654,0,0,1,222.14355,200.07031Zm-.95605,0a2.79152,2.79152,0,0,0-.13379-.89258,1.85591,1.85591,0,0,0-.38477-.668,1.67837,1.67837,0,0,0-.60547-.418,2.10289,2.10289,0,0,0-.7998-.14551h-1.23633v4.248h1.23633a2.10291,2.10291,0,0,0,.7998-.14453,1.63147,1.63147,0,0,0,.60547-.418,1.87267,1.87267,0,0,0,.38477-.668A2.78066,2.78066,0,0,0,221.1875,200.07031Z" transform="translate(32 -94)"/><path class="b" d="M229.55469,200.92578a2.98612,2.98612,0,0,1-.11816.87012,1.78069,1.78069,0,0,1-.35254.65625,1.55423,1.55423,0,0,1-.5791.416,2.04762,2.04762,0,0,1-.80273.14648,3.22077,3.22077,0,0,1-.41211-.02637,3.62648,3.62648,0,0,1-.42383-.082l.04785-.55957a.22373.22373,0,0,1,.0625-.12891.20553.20553,0,0,1,.14551-.04785.79038.79038,0,0,1,.18652.03027,1.39129,1.39129,0,0,0,.73145-.042.76769.76769,0,0,0,.32031-.22559,1.02727,1.02727,0,0,0,.19629-.39648,2.25558,2.25558,0,0,0,.06543-.58594v-3.75977h.93262Z" transform="translate(32 -94)"/><path class="b" d="M234.40332,202.19434a1.48682,1.48682,0,0,0,.59375-.1123,1.26,1.26,0,0,0,.44434-.31152,1.367,1.367,0,0,0,.27832-.48242,1.94483,1.94483,0,0,0,.0957-.626v-3.47168h.93164v3.47168a2.64945,2.64945,0,0,1-.16211.94043,2.09094,2.09094,0,0,1-1.2041,1.2373,2.76557,2.76557,0,0,1-1.95605,0,2.09294,2.09294,0,0,1-1.20312-1.2373,2.64945,2.64945,0,0,1-.16211-.94043v-3.47168h.93555v3.46777a1.94483,1.94483,0,0,0,.0957.626,1.396,1.396,0,0,0,.27637.48438,1.22444,1.22444,0,0,0,.44238.31348A1.48682,1.48682,0,0,0,234.40332,202.19434Z" transform="translate(32 -94)"/><path class="b" d="M244.0791,197.19043v5.75977h-.47656a.40777.40777,0,0,1-.18359-.03809.42535.42535,0,0,1-.14355-.126l-3.16406-4.06348c.00781.07715.01367.15332.01758.22949s.00586.14648.00586.21v3.78809h-.82422v-5.75977h.48828a.76513.76513,0,0,1,.10254.00586.32055.32055,0,0,1,.07715.02148.22693.22693,0,0,1,.06836.04883.68373.68373,0,0,1,.06836.08008l3.168,4.06738c-.00781-.082-.01465-.16406-.01855-.24414s-.00586-.1543-.00586-.22363v-3.75586Z" transform="translate(32 -94)"/><path class="b" d="M251.43066,200.11426v2.28027a3.33448,3.33448,0,0,1-2,.62012,3.49945,3.49945,0,0,1-1.2666-.21875,2.8044,2.8044,0,0,1-.96582-.60742,2.67805,2.67805,0,0,1-.61621-.93066,3.17621,3.17621,0,0,1-.21582-1.1875,3.309,3.309,0,0,1,.208-1.19434,2.64308,2.64308,0,0,1,.5957-.93164,2.68024,2.68024,0,0,1,.93652-.60449,3.36194,3.36194,0,0,1,1.23145-.21387,3.61891,3.61891,0,0,1,.64648.05469,3.18561,3.18561,0,0,1,.55371.14941,2.62581,2.62581,0,0,1,.47266.23242,2.65267,2.65267,0,0,1,.39551.30371l-.26758.42773a.26431.26431,0,0,1-.16406.124.2807.2807,0,0,1-.2168-.04785c-.07715-.04492-.15918-.09277-.24512-.14355a2.09959,2.09959,0,0,0-.68652-.25,2.78,2.78,0,0,0-.51953-.042,2.15673,2.15673,0,0,0-.82227.14941,1.76912,1.76912,0,0,0-.626.42773,1.898,1.898,0,0,0-.40039.6748,2.651,2.651,0,0,0-.13965.88379,2.68131,2.68131,0,0,0,.14746.92188,1.93067,1.93067,0,0,0,.4209.68848,1.79221,1.79221,0,0,0,.65723.42969,2.39538,2.39538,0,0,0,.8623.14746,2.44753,2.44753,0,0,0,.63379-.0752,2.88357,2.88357,0,0,0,.5459-.21289v-1.14355h-.80371a.19743.19743,0,0,1-.14355-.0498.17146.17146,0,0,1-.05273-.12988v-.53223Z" transform="translate(32 -94)"/><path class="b" d="M257.39844,202.19434l-.00391.75586h-3.59277v-5.75977h3.59277v.75586h-2.65234v1.73633h2.12012v.73145h-2.12012v1.78027Z" transform="translate(32 -94)"/><path class="b" d="M264.05859,202.9502h-.83594a.38518.38518,0,0,1-.36035-.19238l-1.34375-1.93945a.45025.45025,0,0,0-.14844-.14453.51312.51312,0,0,0-.24023-.04395h-.51953v2.32031h-.93652v-5.75977h1.69629a3.59362,3.59362,0,0,1,.97852.11621,1.86474,1.86474,0,0,1,.67383.3291,1.3135,1.3135,0,0,1,.38965.51465,1.81256,1.81256,0,0,1,.03613,1.22754,1.56081,1.56081,0,0,1-.25977.47266,1.67408,1.67408,0,0,1-.418.36719,2.11218,2.11218,0,0,1-.56445.24414.9263.9263,0,0,1,.2959.292Zm-2.71191-3a1.82185,1.82185,0,0,0,.55957-.07812,1.12494,1.12494,0,0,0,.40039-.21777.88924.88924,0,0,0,.23926-.334,1.11145,1.11145,0,0,0,.08008-.42969.86616.86616,0,0,0-.31152-.7207,1.50274,1.50274,0,0,0-.94434-.248h-.75977v2.02832Z" transform="translate(32 -94)"/><path class="b" d="M275.40234,197.19043v5.75977h-.82324V199.002c0-.06348.002-.13379.00586-.21s.00977-.15234.01758-.22949l-1.85156,3.41992a.35153.35153,0,0,1-.332.21191h-.13184a.346.346,0,0,1-.332-.21191l-1.87988-3.42871c.00781.07813.01367.15527.01758.23242s.00586.14941.00586.21582v3.94824h-.82422v-5.75977h.7002a.66.66,0,0,1,.19238.02148.2422.2422,0,0,1,.124.13477l1.84766,3.34766c.04.07715.07813.15625.11426.23828.03613.08105.06836.16406.09766.25q.04834-.12891.10254-.25488c.03613-.084.07324-.16406.11328-.24121l1.82031-3.33984a.2422.2422,0,0,1,.124-.13477.65551.65551,0,0,1,.19238-.02148Z" transform="translate(32 -94)"/><path class="b" d="M281.63086,202.19434l-.00391.75586h-3.59277v-5.75977H281.627v.75586h-2.65234v1.73633h2.12012v.73145h-2.12012v1.78027Z" transform="translate(32 -94)"/><path class="b" d="M288.96289,200.07031a3.17654,3.17654,0,0,1-.208,1.16992,2.57988,2.57988,0,0,1-1.49414,1.5,3.18024,3.18024,0,0,1-1.17773.21h-2.17676v-5.75977H286.083a3.16052,3.16052,0,0,1,1.17773.21,2.57988,2.57988,0,0,1,1.49414,1.5A3.17654,3.17654,0,0,1,288.96289,200.07031Zm-.95605,0a2.79152,2.79152,0,0,0-.13379-.89258,1.85592,1.85592,0,0,0-.38477-.668,1.67837,1.67837,0,0,0-.60547-.418,2.10289,2.10289,0,0,0-.7998-.14551h-1.23633v4.248H286.083a2.10291,2.10291,0,0,0,.7998-.14453,1.63147,1.63147,0,0,0,.60547-.418,1.87267,1.87267,0,0,0,.38477-.668A2.78066,2.78066,0,0,0,288.00684,200.07031Z" transform="translate(32 -94)"/><path class="b" d="M292.19434,202.9502h-.94043v-5.75977h.94043Z" transform="translate(32 -94)"/><path class="b" d="M298.42285,202.19434l-.00391.75586h-3.59277v-5.75977h3.59277v.75586H295.7666v1.73633h2.12012v.73145H295.7666v1.78027Z" transform="translate(32 -94)"/><path class="b" d="M305.46582,197.19043v5.75977h-.47656a.40777.40777,0,0,1-.18359-.03809.42535.42535,0,0,1-.14355-.126l-3.16406-4.06348c.00781.07715.01367.15332.01758.22949s.00586.14648.00586.21v3.78809h-.82422v-5.75977h.48828a.76512.76512,0,0,1,.10254.00586.32055.32055,0,0,1,.07715.02148.22693.22693,0,0,1,.06836.04883.68373.68373,0,0,1,.06836.08008l3.168,4.06738c-.00781-.082-.01465-.16406-.01855-.24414s-.00586-.1543-.00586-.22363v-3.75586Z" transform="translate(32 -94)"/><path class="b" d="M314.22949,197.19043v5.75977h-.82324V199.002c0-.06348.002-.13379.00586-.21s.00977-.15234.01758-.22949l-1.85156,3.41992a.35153.35153,0,0,1-.332.21191h-.13184a.346.346,0,0,1-.332-.21191l-1.87988-3.42871c.00781.07813.01367.15527.01758.23242s.00586.14941.00586.21582v3.94824h-.82422v-5.75977h.7002a.66.66,0,0,1,.19238.02148.2422.2422,0,0,1,.124.13477l1.84766,3.34766c.04.07715.07813.15625.11426.23828.03613.08105.06836.16406.09766.25q.04834-.12891.10254-.25488c.03613-.084.07324-.16406.11328-.24121l1.82031-3.33984a.2422.2422,0,0,1,.124-.13477.65551.65551,0,0,1,.19238-.02148Z" transform="translate(32 -94)"/><path class="b" d="M321.68164,202.9502H320.958a.30825.30825,0,0,1-.2002-.06152.40383.40383,0,0,1-.11621-.1543l-.47949-1.27246h-2.48047l-.47949,1.27246a.39153.39153,0,0,1-.1123.14746.2965.2965,0,0,1-.2002.06836H316.166l2.28418-5.75977h.94727ZM319.91016,200.79l-.792-2.10352a5.73865,5.73865,0,0,1-.19629-.62012c-.0293.125-.06152.24023-.0957.3457q-.05273.1582-.09668.27832l-.792,2.09961Z" transform="translate(32 -94)"/><path class="b" d="M327.458,201.666a.178.178,0,0,1,.13281.06055l.37207.40332a2.3737,2.3737,0,0,1-.86426.6543,2.97559,2.97559,0,0,1-1.22461.23047,2.874,2.874,0,0,1-1.1416-.21875,2.5056,2.5056,0,0,1-.87012-.60742,2.69285,2.69285,0,0,1-.55371-.93066,3.474,3.474,0,0,1-.19434-1.1875,3.31976,3.31976,0,0,1,.20605-1.19043,2.73613,2.73613,0,0,1,.58008-.93164,2.60955,2.60955,0,0,1,.89648-.60645,2.98242,2.98242,0,0,1,1.14941-.21582,2.81427,2.81427,0,0,1,1.10254.20215,2.72956,2.72956,0,0,1,.8291.53809l-.30762.43555a.3317.3317,0,0,1-.07617.07617.19927.19927,0,0,1-.12012.03223.3219.3219,0,0,1-.18164-.07422c-.06836-.04883-.1543-.10352-.25977-.16406a2.06844,2.06844,0,0,0-.39648-.16406,2.04591,2.04591,0,0,0-.59375-.07324,1.94474,1.94474,0,0,0-.75586.14355,1.631,1.631,0,0,0-.5918.41992,1.96352,1.96352,0,0,0-.38672.67188,2.73737,2.73737,0,0,0-.1377.90039,2.63784,2.63784,0,0,0,.14453.90625,1.9677,1.9677,0,0,0,.39551.67188,1.702,1.702,0,0,0,.5918.418,1.86273,1.86273,0,0,0,.73242.14355,3.3257,3.3257,0,0,0,.42969-.02539,1.77173,1.77173,0,0,0,.35059-.084,1.65731,1.65731,0,0,0,.30176-.14648,1.95561,1.95561,0,0,0,.28223-.21582A.2404.2404,0,0,1,327.458,201.666Z" transform="translate(32 -94)"/><path class="b" d="M334.80566,197.19043v5.75977h-.93652v-2.56445h-2.8916v2.56445h-.94043v-5.75977h.94043V199.71h2.8916v-2.51953Z" transform="translate(32 -94)"/><path class="b" d="M341.03809,202.19434l-.00391.75586h-3.59277v-5.75977h3.59277v.75586h-2.65234v1.73633H340.502v.73145h-2.12012v1.78027Z" transform="translate(32 -94)"/><path class="b" d="M348.082,197.19043v5.75977h-.47656a.40777.40777,0,0,1-.18359-.03809.42535.42535,0,0,1-.14355-.126l-3.16406-4.06348c.00781.07715.01367.15332.01758.22949s.00586.14648.00586.21v3.78809h-.82422v-5.75977h.48828a.76513.76513,0,0,1,.10254.00586.32055.32055,0,0,1,.07715.02148.22693.22693,0,0,1,.06836.04883.68373.68373,0,0,1,.06836.08008l3.168,4.06738c-.00781-.082-.01465-.16406-.01855-.24414s-.00586-.1543-.00586-.22363v-3.75586Z" transform="translate(32 -94)"/><path class="b" d="M355.77344,200.07031a3.17654,3.17654,0,0,1-.208,1.16992,2.57988,2.57988,0,0,1-1.49414,1.5,3.18024,3.18024,0,0,1-1.17773.21H350.7168v-5.75977h2.17676a3.16052,3.16052,0,0,1,1.17773.21,2.57988,2.57988,0,0,1,1.49414,1.5A3.17654,3.17654,0,0,1,355.77344,200.07031Zm-.95605,0a2.79152,2.79152,0,0,0-.13379-.89258,1.85592,1.85592,0,0,0-.38477-.668,1.67837,1.67837,0,0,0-.60547-.418,2.10289,2.10289,0,0,0-.7998-.14551h-1.23633v4.248h1.23633a2.10291,2.10291,0,0,0,.7998-.14453,1.63147,1.63147,0,0,0,.60547-.418,1.87267,1.87267,0,0,0,.38477-.668A2.78067,2.78067,0,0,0,354.81738,200.07031Z" transform="translate(32 -94)"/><path class="b" d="M361.66211,202.19434l-.00391.75586h-3.59277v-5.75977h3.59277v.75586h-2.65234v1.73633H361.126v.73145h-2.12012v1.78027Z" transform="translate(32 -94)"/><path class="b" d="M368.32227,202.9502h-.83594a.38518.38518,0,0,1-.36035-.19238l-1.34375-1.93945a.45025.45025,0,0,0-.14844-.14453.51312.51312,0,0,0-.24023-.04395H364.874v2.32031h-.93652v-5.75977h1.69629a3.59362,3.59362,0,0,1,.97852.11621,1.86474,1.86474,0,0,1,.67383.3291,1.3135,1.3135,0,0,1,.38965.51465,1.81256,1.81256,0,0,1,.03613,1.22754,1.5608,1.5608,0,0,1-.25977.47266,1.67408,1.67408,0,0,1-.418.36719,2.11218,2.11218,0,0,1-.56445.24414.92631.92631,0,0,1,.2959.292Zm-2.71191-3a1.82185,1.82185,0,0,0,.55957-.07812,1.12494,1.12494,0,0,0,.40039-.21777.88924.88924,0,0,0,.23926-.334,1.11145,1.11145,0,0,0,.08008-.42969.86616.86616,0,0,0-.31152-.7207,1.50274,1.50274,0,0,0-.94434-.248H364.874v2.02832Z" transform="translate(32 -94)"/><path class="b" d="M74.46191,155.55957a11.00624,11.00624,0,0,1-.44238,3.21973,6.80606,6.80606,0,0,1-1.334,2.48633,5.988,5.988,0,0,1-2.24023,1.60938,8.081,8.081,0,0,1-3.17529.57324,15.01441,15.01441,0,0,1-1.63135-.08789,14.03315,14.03315,0,0,1-1.6748-.28906l.26074-2.85742a.9264.9264,0,0,1,.30469-.6084,1.07821,1.07821,0,0,1,.73975-.23242,2.95868,2.95868,0,0,1,.60889.08008,4.12647,4.12647,0,0,0,.87012.08008,3.56336,3.56336,0,0,0,1.23975-.19629,1.91594,1.91594,0,0,0,.877-.65234,3.14,3.14,0,0,0,.522-1.19629,8.11173,8.11173,0,0,0,.17432-1.82715V142.08838h4.90088Z" transform="translate(32 -94)"/><path class="b" d="M87.16309,159.34473a4.52024,4.52024,0,0,0,1.76172-.32617,3.56784,3.56784,0,0,0,1.3125-.93555,4.13876,4.13876,0,0,0,.81934-1.48633,6.49167,6.49167,0,0,0,.28271-1.99463V142.08838h4.90088v12.51367a9.77655,9.77655,0,0,1-.63086,3.56787,7.99729,7.99729,0,0,1-1.80518,2.79883,8.15292,8.15292,0,0,1-2.85645,1.82617,11.32992,11.32992,0,0,1-7.5835,0,8.144,8.144,0,0,1-2.85645-1.82617A7.91225,7.91225,0,0,1,78.71,158.16992a9.86853,9.86853,0,0,1-.62354-3.56787V142.08838H82.9873v12.499A6.49167,6.49167,0,0,0,83.27,156.582a4.19612,4.19612,0,0,0,.81934,1.49316,3.52564,3.52564,0,0,0,1.312.94336A4.52024,4.52024,0,0,0,87.16309,159.34473Z" transform="translate(32 -94)"/><path class="b" d="M110.21777,152.26807h7.51172v8.91748a11.08969,11.08969,0,0,1-3.459,1.72559,13.59159,13.59159,0,0,1-3.834.53711,13.18687,13.18687,0,0,1-4.74951-.81934,10.93822,10.93822,0,0,1-3.66113-2.2627,9.92122,9.92122,0,0,1-2.34912-3.42187,11.04815,11.04815,0,0,1-.82617-4.29932,11.70258,11.70258,0,0,1,.78271-4.34277,9.788,9.788,0,0,1,2.24023-3.415,10.15789,10.15789,0,0,1,3.52344-2.23242,12.72712,12.72712,0,0,1,4.61865-.79785,13.40528,13.40528,0,0,1,2.47949.21777,12.18229,12.18229,0,0,1,2.13867.59375,9.90319,9.90319,0,0,1,1.791.89941,9.63716,9.63716,0,0,1,1.44922,1.13086l-1.41992,2.16016a1.36258,1.36258,0,0,1-.86328.624,1.52546,1.52546,0,0,1-1.13867-.26074q-.58008-.34863-1.09375-.60254a6.649,6.649,0,0,0-2.18359-.64453,10.972,10.972,0,0,0-1.3335-.07324,6.07937,6.07937,0,0,0-2.47949.48633,5.31041,5.31041,0,0,0-1.87744,1.37012,6.19359,6.19359,0,0,0-1.19629,2.124,8.55356,8.55356,0,0,0-.4209,2.7627,8.88281,8.88281,0,0,0,.46436,2.98682,6.16868,6.16868,0,0,0,1.312,2.2041,5.61041,5.61041,0,0,0,2.03027,1.37109,7.01967,7.01967,0,0,0,2.61719.4707,6.80671,6.80671,0,0,0,1.60254-.17383A8.92448,8.92448,0,0,0,113.292,159.04V155.835H111.2041a1.01484,1.01484,0,0,1-.72461-.24609.82217.82217,0,0,1-.26172-.62451Z" transform="translate(32 -94)"/><path class="b" d="M125.9502,145.85889v4.92969h6.64062v3.625H125.9502v5.03271h8.6709v3.76953H121.02051V142.08838h13.60059v3.77051Z" transform="translate(32 -94)"/><path class="b" d="M156.08105,142.08838v21.12744H153.5293a2.21953,2.21953,0,0,1-.9502-.18164,2.32053,2.32053,0,0,1-.76074-.62988l-9.96191-12.60107q.05859.56543.08008,1.09473.022.52881.02148.99316v11.32471H137.6377V142.08838h2.58105a4.12542,4.12542,0,0,1,.53613.0293,1.36544,1.36544,0,0,1,.3916.10938,1.29042,1.29042,0,0,1,.333.22461,3.67041,3.67041,0,0,1,.3623.3916l10.04883,12.688q-.07178-.60937-.10156-1.18311c-.01953-.38086-.02832-.74121-.02832-1.08008V142.08838Z" transform="translate(32 -94)"/><path class="b" d="M179.33984,152.645a11.06834,11.06834,0,0,1-.791,4.22705,9.88477,9.88477,0,0,1-2.22559,3.34961,10.10235,10.10235,0,0,1-3.458,2.2041,12.248,12.248,0,0,1-4.4873.79h-8.207V142.08838h8.207a12.14777,12.14777,0,0,1,4.4873.79785,10.2495,10.2495,0,0,1,3.458,2.2041,9.80494,9.80494,0,0,1,2.22559,3.3418A11.035,11.035,0,0,1,179.33984,152.645Zm-5.01758,0a9.21664,9.21664,0,0,0-.40625-2.82812,6.03527,6.03527,0,0,0-1.167-2.13867,5.06573,5.06573,0,0,0-1.86328-1.34766,6.31709,6.31709,0,0,0-2.50781-.47168h-3.27734v13.5874h3.27734a6.31709,6.31709,0,0,0,2.50781-.47168A5.0681,5.0681,0,0,0,172.749,157.626a6.03527,6.03527,0,0,0,1.167-2.13867A9.26347,9.26347,0,0,0,174.32227,152.645Z" transform="translate(32 -94)"/><path class="b" d="M189.69141,142.08838a12.30211,12.30211,0,0,1,3.83594.5293,7.37158,7.37158,0,0,1,2.63867,1.458,5.68215,5.68215,0,0,1,1.53027,2.18945,7.43048,7.43048,0,0,1,.49219,2.72559,8.02723,8.02723,0,0,1-.50684,2.90039,5.81712,5.81712,0,0,1-1.55176,2.26172,7.301,7.301,0,0,1-2.64648,1.47217,12.11066,12.11066,0,0,1-3.792.5293h-2.55176v7.06152h-4.90039V142.08838Zm0,10.36816a3.11027,3.11027,0,0,0,3.59668-3.46582,3.80407,3.80407,0,0,0-.21777-1.31934,2.679,2.679,0,0,0-.66016-1.02246,2.96222,2.96222,0,0,0-1.11621-.65918,4.92016,4.92016,0,0,0-1.60254-.23242h-2.55176v6.69922Z" transform="translate(32 -94)"/><path class="b" d="M217.96582,163.21582H213.5293a1.8841,1.8841,0,0,1-1.76953-.92773L208.251,156.1543a1.689,1.689,0,0,0-.55078-.57227,1.71352,1.71352,0,0,0-.87012-.18164H205.583v7.81543h-4.90039V142.08838h6.873a14.09442,14.09442,0,0,1,3.90723.47168,7.33239,7.33239,0,0,1,2.63867,1.3125,4.96644,4.96644,0,0,1,1.48633,1.98633,6.5757,6.5757,0,0,1,.46387,2.49414,6.68959,6.68959,0,0,1-.27539,1.94238,5.985,5.985,0,0,1-.81152,1.68945,6.1766,6.1766,0,0,1-1.32715,1.38477,7.0851,7.0851,0,0,1-1.81934,1.001,4.41252,4.41252,0,0,1,.89844.61621,4.34378,4.34378,0,0,1,.75488.87744ZM207.55566,152.021a5.045,5.045,0,0,0,1.70313-.25293,3.09208,3.09208,0,0,0,1.15332-.7041,2.683,2.683,0,0,0,.65234-1.05078,4.05255,4.05255,0,0,0,.20313-1.29785,2.72282,2.72282,0,0,0-.90625-2.1748,4.21737,4.21737,0,0,0-2.80566-.7832H205.583V152.021Z" transform="translate(32 -94)"/><path class="b" d="M224.67969,145.85889v4.92969h6.64063v3.625h-6.64062v5.03271h8.6709v3.76953H219.75V142.08838h13.60059v3.77051Z" transform="translate(32 -94)"/><path class="b" d="M248.03906,146.38037a1.82362,1.82362,0,0,1-.457.52246,1.01852,1.01852,0,0,1-.61621.17383,1.517,1.517,0,0,1-.71777-.21c-.25586-.13965-.5459-.29785-.86914-.47168a7.23068,7.23068,0,0,0-1.10937-.4707,4.42737,4.42737,0,0,0-1.4209-.21094,3.05562,3.05562,0,0,0-2.05176.58789,1.99665,1.99665,0,0,0-.6748,1.58789,1.46441,1.46441,0,0,0,.40625,1.05859,3.50383,3.50383,0,0,0,1.06543.72461,11.40553,11.40553,0,0,0,1.50781.55859q.84961.25342,1.7334.56543a15.59437,15.59437,0,0,1,1.73242.73242,5.77835,5.77835,0,0,1,1.50781,1.07227,5.02509,5.02509,0,0,1,1.06641,1.58789,5.653,5.653,0,0,1,.40527,2.25537,7.35294,7.35294,0,0,1-.50684,2.74023,6.42423,6.42423,0,0,1-1.47168,2.22559,6.82817,6.82817,0,0,1-2.37793,1.49414,8.90665,8.90665,0,0,1-3.21191.54395,10.33852,10.33852,0,0,1-2.00879-.20312,11.89172,11.89172,0,0,1-1.97852-.57324,11.36965,11.36965,0,0,1-1.79883-.877,7.62589,7.62589,0,0,1-1.46387-1.13086l1.4502-2.291a1.44587,1.44587,0,0,1,.45605-.41309,1.18912,1.18912,0,0,1,.61621-.167,1.65338,1.65338,0,0,1,.87793.27539q.44092.27539,1,.60938a8.18665,8.18665,0,0,0,1.2832.6084,4.81361,4.81361,0,0,0,1.71094.27539,3.25375,3.25375,0,0,0,2.07324-.58691,2.23612,2.23612,0,0,0,.74023-1.86328,1.76108,1.76108,0,0,0-.40625-1.20312,3.136,3.136,0,0,0-1.06543-.76855,9.847,9.847,0,0,0-1.501-.5376q-.84082-.23145-1.72559-.51465a12.49892,12.49892,0,0,1-1.72559-.69629,5.45886,5.45886,0,0,1-1.501-1.08691,5.08682,5.08682,0,0,1-1.06543-1.68164,6.68347,6.68347,0,0,1-.40625-2.4873,5.9155,5.9155,0,0,1,.47852-2.32031,5.98965,5.98965,0,0,1,1.40625-2.01465,6.91329,6.91329,0,0,1,2.27734-1.41406,8.40786,8.40786,0,0,1,3.08789-.5293,11.58426,11.58426,0,0,1,1.89258.15234,9.95138,9.95138,0,0,1,1.74707.44922,9.61843,9.61843,0,0,1,1.54395.71094,7.126,7.126,0,0,1,1.2832.93457Z" transform="translate(32 -94)"/><path class="b" d="M264.10449,146.38037a1.82362,1.82362,0,0,1-.457.52246,1.01852,1.01852,0,0,1-.61621.17383,1.517,1.517,0,0,1-.71777-.21c-.25586-.13965-.5459-.29785-.86914-.47168a7.23068,7.23068,0,0,0-1.10937-.4707,4.42737,4.42737,0,0,0-1.4209-.21094,3.05562,3.05562,0,0,0-2.05176.58789,1.99665,1.99665,0,0,0-.6748,1.58789,1.46441,1.46441,0,0,0,.40625,1.05859,3.50383,3.50383,0,0,0,1.06543.72461,11.40553,11.40553,0,0,0,1.50781.55859q.84961.25342,1.7334.56543a15.59437,15.59437,0,0,1,1.73242.73242,5.77835,5.77835,0,0,1,1.50781,1.07227A5.02509,5.02509,0,0,1,265.207,154.189a5.653,5.653,0,0,1,.40527,2.25537,7.35294,7.35294,0,0,1-.50684,2.74023,6.42423,6.42423,0,0,1-1.47168,2.22559,6.82817,6.82817,0,0,1-2.37793,1.49414,8.90665,8.90665,0,0,1-3.21191.54395,10.33852,10.33852,0,0,1-2.00879-.20312,11.89172,11.89172,0,0,1-1.97852-.57324,11.36965,11.36965,0,0,1-1.79883-.877,7.62589,7.62589,0,0,1-1.46387-1.13086l1.4502-2.291a1.44587,1.44587,0,0,1,.45605-.41309,1.18912,1.18912,0,0,1,.61621-.167,1.65338,1.65338,0,0,1,.87793.27539q.44092.27539,1,.60938a8.18664,8.18664,0,0,0,1.2832.6084,4.81361,4.81361,0,0,0,1.71094.27539,3.25375,3.25375,0,0,0,2.07324-.58691,2.23612,2.23612,0,0,0,.74023-1.86328,1.76108,1.76108,0,0,0-.40625-1.20312,3.136,3.136,0,0,0-1.06543-.76855,9.847,9.847,0,0,0-1.501-.5376q-.84082-.23145-1.72559-.51465a12.49892,12.49892,0,0,1-1.72559-.69629,5.45886,5.45886,0,0,1-1.501-1.08691,5.08683,5.08683,0,0,1-1.06543-1.68164,6.68347,6.68347,0,0,1-.40625-2.4873,5.9155,5.9155,0,0,1,.47852-2.32031,5.98965,5.98965,0,0,1,1.40625-2.01465,6.91329,6.91329,0,0,1,2.27734-1.41406,8.40786,8.40786,0,0,1,3.08789-.5293,11.58426,11.58426,0,0,1,1.89258.15234,9.95138,9.95138,0,0,1,1.74707.44922,9.61843,9.61843,0,0,1,1.54395.71094,7.126,7.126,0,0,1,1.2832.93457Z" transform="translate(32 -94)"/><path class="b" d="M273.42773,145.85889v4.92969h6.64063v3.625h-6.64062v5.03271h8.6709v3.76953H268.498V142.08838h13.60059v3.77051Z" transform="translate(32 -94)"/><path class="c" d="M76.34912,175.6084a7.41319,7.41319,0,0,1-.5083,2.7793,6.31129,6.31129,0,0,1-1.43457,2.17969,6.57087,6.57087,0,0,1-2.228,1.42578,7.816,7.816,0,0,1-2.8877.5127H63.98926V168.72168h5.30127a7.816,7.816,0,0,1,2.8877.5127,6.52136,6.52136,0,0,1,2.228,1.42969,6.38015,6.38015,0,0,1,1.43457,2.18066A7.346,7.346,0,0,1,76.34912,175.6084Zm-2.92627,0a6.18976,6.18976,0,0,0-.28516-1.94727,4.11007,4.11007,0,0,0-.81689-1.46289,3.5644,3.5644,0,0,0-1.29687-.9209,4.408,4.408,0,0,0-1.7334-.32324H66.8584v9.31934h2.43213a4.47929,4.47929,0,0,0,1.7334-.31836,3.48788,3.48788,0,0,0,1.29688-.92187,4.14112,4.14112,0,0,0,.81689-1.46777A6.2225,6.2225,0,0,0,73.42285,175.6084Z" transform="translate(32 -94)"/><path class="c" d="M81.26025,170.9541v3.543H85.8584v2.15723H81.26025v3.61914h5.90918v2.23242H78.39111V168.72168h8.77832v2.23242Z" transform="translate(32 -94)"/><path class="c" d="M94.88281,180.22559a3.1686,3.1686,0,0,0,1.24463-.23242,2.56037,2.56037,0,0,0,.93115-.66016,2.89314,2.89314,0,0,0,.5791-1.03613,4.35618,4.35618,0,0,0,.19971-1.36719v-8.208h2.8501v8.208a6.37077,6.37077,0,0,1-.40381,2.30371,5.11338,5.11338,0,0,1-2.97852,2.99707,7.08691,7.08691,0,0,1-4.84961,0,5.10476,5.10476,0,0,1-2.98291-2.99707,6.37077,6.37077,0,0,1-.40381-2.30371v-8.208h2.8501v8.208a4.37077,4.37077,0,0,0,.19922,1.36719,2.894,2.894,0,0,0,.57959,1.03613,2.56037,2.56037,0,0,0,.93115.66016A3.19339,3.19339,0,0,0,94.88281,180.22559Z" transform="translate(32 -94)"/><path class="c" d="M113.103,171.02051h-4.02734v11.48535h-2.85937V171.02051h-4.02783v-2.29883H113.103Z" transform="translate(32 -94)"/><path class="c" d="M122.22412,171.3623a1.08666,1.08666,0,0,1-.27051.31836.59439.59439,0,0,1-.35645.09961.87337.87337,0,0,1-.45117-.14746q-.24316-.14648-.56543-.31836a5.55627,5.55627,0,0,0-.74121-.31738,2.9302,2.9302,0,0,0-.97852-.14746,2.16561,2.16561,0,0,0-1.48145.44141,1.47415,1.47415,0,0,0-.49414,1.1543,1.08123,1.08123,0,0,0,.27051.75488,2.35573,2.35573,0,0,0,.71289.51855,6.52313,6.52313,0,0,0,1.002.38867q.55957.17139,1.14941.376a10.08673,10.08673,0,0,1,1.14941.47949,4.03133,4.03133,0,0,1,1.002.69336,3.18087,3.18087,0,0,1,.71289,1.02148,3.57215,3.57215,0,0,1,.27051,1.46777,4.72059,4.72059,0,0,1-.32715,1.76172,4.18738,4.18738,0,0,1-.94531,1.43457,4.36821,4.36821,0,0,1-1.52539.96484,5.65524,5.65524,0,0,1-2.05664.35156,6.49007,6.49007,0,0,1-1.30566-.13379,7.42931,7.42931,0,0,1-1.25391-.37012,6.899,6.899,0,0,1-1.13574-.57031,4.97348,4.97348,0,0,1-.93066-.74023l.83594-1.34961a.857.857,0,0,1,.27539-.252.7074.7074,0,0,1,.36133-.09961.98353.98353,0,0,1,.541.19043c.19043.127.4082.26563.65527.418a5.31172,5.31172,0,0,0,.86035.418,3.23432,3.23432,0,0,0,1.17285.18945,2.346,2.346,0,0,0,1.54395-.45508,1.66981,1.66981,0,0,0,.5459-1.35937,1.26938,1.26938,0,0,0-.27051-.84473,2.17618,2.17618,0,0,0-.708-.542,5.625,5.625,0,0,0-.99707-.375q-.561-.15674-1.14941-.34668a9.31755,9.31755,0,0,1-1.14941-.45605,3.56462,3.56462,0,0,1-.998-.70312,3.33462,3.33462,0,0,1-.708-1.083,4.18227,4.18227,0,0,1-.27051-1.60547,3.81359,3.81359,0,0,1,1.19727-2.77441,4.48374,4.48374,0,0,1,1.44824-.90234,5.314,5.314,0,0,1,1.97168-.3418,6.69326,6.69326,0,0,1,2.30371.38477,5.17721,5.17721,0,0,1,1.791,1.06836Z" transform="translate(32 -94)"/><path class="c" d="M134.55518,179.11426a.52457.52457,0,0,1,.39844.1709l1.13086,1.207a5.38222,5.38222,0,0,1-2.0752,1.61426,7.2141,7.2141,0,0,1-2.9502.55176,7.02243,7.02243,0,0,1-2.7832-.52734,6.02423,6.02423,0,0,1-2.09961-1.46777,6.52834,6.52834,0,0,1-1.33008-2.23242,8.721,8.721,0,0,1-.24219-4.77441,6.85789,6.85789,0,0,1,.65039-1.70508,6.58719,6.58719,0,0,1,1.03125-1.40625,6.20657,6.20657,0,0,1,1.36328-1.06836,6.52436,6.52436,0,0,1,1.65723-.6748,7.64266,7.64266,0,0,1,1.91406-.23242,7.46909,7.46909,0,0,1,1.43945.13281,6.98227,6.98227,0,0,1,1.26855.37109,5.84423,5.84423,0,0,1,1.08789.57422,6.09656,6.09656,0,0,1,.89746.73633l-.96,1.31152a.88688.88688,0,0,1-.21777.21777.60993.60993,0,0,1-.36133.0957.802.802,0,0,1-.46094-.16211q-.23291-.16113-.56934-.36035a4.0895,4.0895,0,0,0-.8457-.36133,4.33266,4.33266,0,0,0-1.28711-.16211,3.92472,3.92472,0,0,0-1.58691.31445,3.43186,3.43186,0,0,0-1.23926.90723,4.15845,4.15845,0,0,0-.80273,1.458,6.25343,6.25343,0,0,0-.28516,1.96582,5.89864,5.89864,0,0,0,.30859,1.98145,4.35066,4.35066,0,0,0,.8457,1.46777,3.56211,3.56211,0,0,0,1.25391.90723,3.8314,3.8314,0,0,0,1.53418.30859,7.28079,7.28079,0,0,0,.87891-.04785,3.61334,3.61334,0,0,0,.73145-.16113,3.22633,3.22633,0,0,0,.63672-.29492,3.83868,3.83868,0,0,0,.60254-.45605,1.21573,1.21573,0,0,1,.21875-.14258A.55629.55629,0,0,1,134.55518,179.11426Z" transform="translate(32 -94)"/><path class="c" d="M149.44189,168.72168v13.78418h-2.86914v-5.9375h-6.07031v5.9375H137.6333V168.72168h2.86914v5.85156h6.07031v-5.85156Z" transform="translate(32 -94)"/><path class="c" d="M160.45215,180.1875v2.31836h-8.1792V168.72168h2.8501V180.1875Z" transform="translate(32 -94)"/><path class="c" d="M174.19824,182.50586h-2.21289a.97513.97513,0,0,1-.60352-.17578,1.06515,1.06515,0,0,1-.34668-.45117l-.93164-2.63184h-5.49023l-.93164,2.63184a1.0879,1.0879,0,0,1-.332.43262.91321.91321,0,0,1-.59863.19434h-2.23242l5.38672-13.78418h2.916Zm-4.78809-5.23437-1.49121-4.21777c-.08887-.22168-.18164-.48145-.28027-.7793s-.19141-.62109-.28027-.96875q-.1333.53174-.28027.9834c-.09863.30078-.19141.56152-.28027.7832l-1.48145,4.19922Z" transform="translate(32 -94)"/><path class="c" d="M187.22363,168.72168v13.78418H185.751a1.28337,1.28337,0,0,1-.56055-.10937,1.33781,1.33781,0,0,1-.44629-.375l-6.86914-8.74023c.01953.22168.0332.44043.043.65527q.01465.32373.01465.59863v7.9707H175.415V168.72168h1.501a3.07114,3.07114,0,0,1,.30859.01367.70617.70617,0,0,1,.23242.06641.91039.91039,0,0,1,.19922.1377,1.93839,1.93839,0,0,1,.209.22852l6.916,8.77832q-.03809-.36182-.05664-.69824c-.0127-.22559-.01855-.43848-.01855-.6416v-7.88477Z" transform="translate(32 -94)"/><path class="c" d="M202.41406,175.6084a7.40368,7.40368,0,0,1-.50879,2.7793,6.29749,6.29749,0,0,1-1.43457,2.17969,6.55924,6.55924,0,0,1-2.22754,1.42578,7.81415,7.81415,0,0,1-2.8877.5127h-5.30078V168.72168h5.30078a7.81415,7.81415,0,0,1,2.8877.5127,6.5099,6.5099,0,0,1,2.22754,1.42969,6.366,6.366,0,0,1,1.43457,2.18066A7.33655,7.33655,0,0,1,202.41406,175.6084Zm-2.92578,0a6.218,6.218,0,0,0-.28516-1.94727,4.11836,4.11836,0,0,0-.81738-1.46289,3.5644,3.5644,0,0,0-1.29687-.9209,4.40968,4.40968,0,0,0-1.7334-.32324h-2.43164v9.31934h2.43164a4.481,4.481,0,0,0,1.7334-.31836,3.48788,3.48788,0,0,0,1.29688-.92187,4.14949,4.14949,0,0,0,.81738-1.46777A6.25081,6.25081,0,0,0,199.48828,175.6084Z" transform="translate(32 -94)"/></svg>

